<?xml version="1.0" standalone="no"?>
<!DOCTYPE svg PUBLIC "-//W3C//DTD SVG 20010904//EN"
 "http://www.w3.org/TR/2001/REC-SVG-20010904/DTD/svg10.dtd">
<svg version="1.0" xmlns="http://www.w3.org/2000/svg"
 width="700.000000pt" height="700.000000pt" viewBox="0 0 700.000000 700.000000"
 preserveAspectRatio="xMidYMid meet">
<metadata>
Created by potrace 1.11, written by Peter Selinger 2001-2013
</metadata>
<g transform="translate(0.000000,700.000000) scale(0.100000,-0.100000)"
fill="#000000" stroke="none">
<path d="M3278 6995 c-2 -1 -42 -5 -89 -9 -47 -4 -95 -8 -105 -10 -10 -2 -48
-7 -84 -12 -36 -4 -67 -8 -70 -9 -3 -1 -25 -5 -50 -9 -35 -6 -180 -38 -275
-60 -95 -23 -338 -105 -432 -147 -24 -10 -45 -19 -48 -19 -9 0 -305 -146 -365
-181 -30 -17 -62 -37 -71 -45 -8 -8 -19 -14 -23 -14 -12 0 -219 -143 -316
-219 -244 -189 -465 -415 -658 -673 -80 -106 -222 -325 -222 -342 0 -6 19 -17
43 -24 62 -19 538 -172 567 -182 14 -5 126 -41 250 -81 124 -39 272 -87 330
-105 l105 -35 45 53 c214 250 439 430 705 565 166 84 366 159 485 180 14 2 41
8 60 13 19 5 58 12 85 16 28 3 59 8 70 10 47 9 180 17 314 18 l144 1 82 215
c45 118 132 350 194 515 151 403 171 455 187 492 8 17 14 33 14 36 0 6 -37 16
-87 22 -21 3 -49 7 -63 10 -13 2 -52 7 -86 11 -33 3 -74 8 -90 10 -32 5 -540
14 -546 9z"/>
<path d="M5286 6413 c-15 -43 -32 -87 -37 -98 -5 -11 -58 -153 -119 -315 -61
-162 -114 -304 -119 -315 -5 -11 -22 -56 -39 -100 -17 -44 -53 -141 -81 -215
-28 -74 -51 -140 -51 -146 0 -7 17 -24 37 -40 55 -42 243 -230 306 -307 233
-281 421 -700 463 -1032 3 -22 7 -46 9 -52 7 -20 19 -212 18 -293 0 -86 -12
-280 -17 -289 -2 -3 -7 -31 -11 -61 -33 -267 -177 -626 -351 -878 l-44 -63
317 -397 c175 -218 320 -399 323 -402 3 -3 49 -60 104 -127 85 -107 100 -121
117 -112 10 5 19 13 19 17 0 4 17 25 37 47 107 116 294 386 395 570 52 96 158
310 158 321 0 3 8 24 19 47 53 118 147 417 177 562 62 298 78 459 78 760 1
295 -11 428 -60 680 -179 921 -734 1743 -1526 2259 -47 31 -88 56 -90 56 -2 0
-16 -35 -32 -77z"/>
<path d="M47 4053 c-4 -7 -17 -83 -23 -138 -26 -237 -26 -667 1 -826 2 -13 6
-46 9 -74 9 -78 23 -156 51 -285 23 -107 88 -333 114 -395 5 -11 26 -65 46
-120 64 -168 249 -531 312 -610 4 -6 34 -49 65 -95 171 -256 432 -534 708
-755 92 -74 370 -265 386 -265 4 0 15 -6 23 -14 26 -22 297 -158 408 -204 282
-117 590 -201 858 -237 22 -2 56 -7 75 -10 220 -31 691 -26 907 9 21 4 54 9
73 11 19 3 46 7 60 10 14 3 41 8 60 11 242 43 562 150 833 278 l97 46 -363
453 c-200 248 -393 488 -429 533 l-65 81 -44 -14 c-135 -43 -278 -78 -359 -89
-19 -3 -46 -7 -60 -9 -50 -9 -207 -19 -300 -19 -329 2 -641 75 -945 224 -666
324 -1107 946 -1205 1700 -7 47 -12 156 -13 242 l-1 157 -26 10 c-14 5 -113
38 -220 72 -250 79 -435 138 -740 237 -135 43 -255 82 -267 86 -12 4 -23 3
-26 -1z"/>
</g>
</svg>
